<svg id="Place_your_art_here" data-name="Place your art here" xmlns="http://www.w3.org/2000/svg" viewBox="0 0 1858.11 459.56"><defs><style>.cls-1{fill:#040504;}.cls-2{fill:#231f20;}</style></defs><title>TylerMoxley_LogoFinal_Monogram_Black lockup 2</title><path class="cls-1" d="M660.78,376.62H569.09l-.11-12a202.53,202.53,0,0,0-24.56-94.89l-4.35-8,66.27-66.28,8.14,12.71A293.18,293.18,0,0,1,660.7,364.4Zm-67.95-24.27h43.24a268.68,268.68,0,0,0-34.22-118.08l-31.91,31.92A227.13,227.13,0,0,1,592.83,352.35Z"/><path class="cls-1" d="M163.69,376.62H72l.08-12.22A293.09,293.09,0,0,1,118.3,208.16l8.14-12.71,66.27,66.28-4.35,8a202.41,202.41,0,0,0-24.56,94.89Zm-67-24.27H140a227.13,227.13,0,0,1,22.89-86.16l-31.92-31.92A268.8,268.8,0,0,0,96.71,352.35Z"/><path class="cls-1" d="M414.26,376.62H318.51V169.47a202.16,202.16,0,0,0-88.12,46.85l-8.57,7.77-64.77-64.77,9.23-8.57a293.77,293.77,0,0,1,400.21,0l9.23,8.57L511,224.09l-8.56-7.77a202.14,202.14,0,0,0-88.13-46.85Zm-71.47-24.27H390V140.25l14.15,2.38a225.82,225.82,0,0,1,105.79,48.15l30.61-30.61a269.45,269.45,0,0,0-348.3,0l30.6,30.61a225.85,225.85,0,0,1,105.8-48.15l14.15-2.38Z"/><path class="cls-2" d="M794.66,174.41H767.17v-10h66.31v10H806v70.21H794.66Z"/><path class="cls-2" d="M887.19,216.9v27.72H875.85v-28L844,164.45h12.26l25.65,42.26,25.77-42.26H919Z"/><path class="cls-2" d="M940.67,164.45h11.46v70.2h43.4v10H940.67Z"/><path class="cls-2" d="M1078.32,234.65v10h-58.18V164.45h56.57v10H1031.6V199h40.19v9.73H1031.6v25.88Z"/><path class="cls-2" d="M1161.92,244.62,1144.63,220c-2.14.15-3.82.22-5,.22h-19.81v24.4h-11.46V164.45h31.27q15.57,0,24.51,7.45t8.93,20.49a26.84,26.84,0,0,1-4.58,15.81,25.89,25.89,0,0,1-13.06,9.5l19,26.92Zm-6.07-38.83q5.72-4.69,5.73-13.4t-5.73-13.34q-5.73-4.63-16.61-4.64h-19.46v36.08h19.46Q1150.12,210.49,1155.85,205.79Z"/><path class="cls-2" d="M1319.62,244.62l-.12-58.41-29,48.67h-5.27l-29-48.33v58.07h-11V164.45h9.39l33.44,56.34,33-56.34h9.38l.12,80.17Z"/><path class="cls-2" d="M1380.43,240.21a39.29,39.29,0,0,1-15.29-14.72,42.27,42.27,0,0,1,0-41.91,39.29,39.29,0,0,1,15.29-14.72,47.31,47.31,0,0,1,43.63,0,39.12,39.12,0,0,1,15.23,14.66,42.9,42.9,0,0,1,0,42,39.12,39.12,0,0,1-15.23,14.66,47.39,47.39,0,0,1-43.63,0Zm37.73-8.88a29.32,29.32,0,0,0,11.11-11.05,32.56,32.56,0,0,0,0-31.49,29.42,29.42,0,0,0-11.11-11.06,31.52,31.52,0,0,0-15.86-4,32.18,32.18,0,0,0-16,4,29.22,29.22,0,0,0-11.22,11.06,32.49,32.49,0,0,0,0,31.49,29.13,29.13,0,0,0,11.22,11.05,32.19,32.19,0,0,0,16,4A31.52,31.52,0,0,0,1418.16,231.33Z"/><path class="cls-2" d="M1521.28,244.62l-24-33.1-23.71,33.1h-13.17l30.12-41.12-28.29-39.05h13.06l22.44,30.81,22.22-30.81h12.48l-28.28,38.71,30.34,41.46Z"/><path class="cls-2" d="M1556.79,164.45h11.45v70.2h43.4v10h-54.85Z"/><path class="cls-2" d="M1694.44,234.65v10h-58.17V164.45h56.57v10h-45.12V199h40.2v9.73h-40.2v25.88Z"/><path class="cls-2" d="M1754.22,216.9v27.72h-11.34v-28L1711,164.45h12.26L1749,206.71l25.77-42.26h11.34Z"/><path class="cls-2" d="M808,375l-13.65-19.21a43.54,43.54,0,0,1-4.79.26h-16v19h-6.32V315.29h22.36q11.44,0,17.93,5.46t6.49,15a18.51,18.51,0,0,1-13.66,18.78L814.89,375Zm-5-28.26q4.69-3.91,4.69-11t-4.69-11.14q-4.7-3.88-13.58-3.88H773.49v30h15.87Q798.24,350.71,802.94,346.78Z"/><path class="cls-2" d="M866.71,354.47H829.14a16.12,16.12,0,0,0,5.38,11.31,17.88,17.88,0,0,0,12.3,4.31,19.34,19.34,0,0,0,7.68-1.5,16.8,16.8,0,0,0,6.06-4.39l3.41,3.93a19.21,19.21,0,0,1-7.46,5.46,25.33,25.33,0,0,1-9.86,1.88,24.81,24.81,0,0,1-12.25-3,21.2,21.2,0,0,1-8.33-8.15,23.26,23.26,0,0,1-3-11.78,24.14,24.14,0,0,1,2.86-11.78,20.79,20.79,0,0,1,7.86-8.11,23.1,23.1,0,0,1,22.41,0,20.5,20.5,0,0,1,7.76,8.07,24.25,24.25,0,0,1,2.82,11.82Zm-32.57-15.33a16.3,16.3,0,0,0-5,10.8H861a16.3,16.3,0,0,0-5-10.8,16.48,16.48,0,0,0-21.85,0Z"/><path class="cls-2" d="M907.08,334.19q4.7,4.4,4.7,13V375H906v-7a13.81,13.81,0,0,1-6,5.46,21,21,0,0,1-9.43,2q-7.51,0-11.95-3.59a12.33,12.33,0,0,1-.3-18.69q4.14-3.49,13.19-3.5h14.26V347q0-5.81-3.25-8.83t-9.47-3a24.08,24.08,0,0,0-8.2,1.41,20.65,20.65,0,0,0-6.74,3.88l-2.73-4.52a24,24,0,0,1,8.19-4.48,31.69,31.69,0,0,1,10.07-1.58Q902.38,329.8,907.08,334.19Zm-6.83,34.15a14.07,14.07,0,0,0,5.47-6.79v-7.34H891.63q-11.52,0-11.52,8a7.33,7.33,0,0,0,3,6.19c2,1.51,4.78,2.27,8.37,2.27A16,16,0,0,0,900.25,368.34Z"/><path class="cls-2" d="M928.25,311.7h6.06V375h-6.06Z"/><path class="cls-2" d="M1017.11,369.58V375H974.86V315.29h41v5.46H981.18V342h30.9v5.38h-30.9v22.2Z"/><path class="cls-2" d="M1031.59,373.89a22.74,22.74,0,0,1-7.82-4l2.74-4.78a23,23,0,0,0,7.08,3.63,28.45,28.45,0,0,0,8.88,1.41c4.1,0,7.13-.65,9.09-1.93a6.11,6.11,0,0,0,3-5.42,4.88,4.88,0,0,0-1.63-3.88,10.81,10.81,0,0,0-4.09-2.14,58.6,58.6,0,0,0-6.58-1.4,74.89,74.89,0,0,1-8.79-2.1,13,13,0,0,1-5.68-3.62,10.12,10.12,0,0,1-2.34-7.09,11.11,11.11,0,0,1,4.69-9.22q4.7-3.58,13.06-3.58a33.84,33.84,0,0,1,8.71,1.15,24.1,24.1,0,0,1,7.17,3l-2.65,4.87a22.58,22.58,0,0,0-13.23-3.85c-3.87,0-6.78.69-8.75,2.05a6.29,6.29,0,0,0-2.94,5.38,5.31,5.31,0,0,0,1.66,4.1,10.25,10.25,0,0,0,4.14,2.26,67.55,67.55,0,0,0,6.83,1.49,80.42,80.42,0,0,1,8.62,2.05,12.63,12.63,0,0,1,5.55,3.5,9.64,9.64,0,0,1,2.31,6.83,10.87,10.87,0,0,1-4.91,9.35q-4.9,3.47-13.62,3.46A34.53,34.53,0,0,1,1031.59,373.89Z"/><path class="cls-2" d="M1095.39,372.31a11.43,11.43,0,0,1-4.22,2.35,17.05,17.05,0,0,1-5.25.81q-6.32,0-9.73-3.42t-3.42-9.64V335.26h-8v-5.12h8v-9.82h6.06v9.82h13.66v5.12h-13.66v26.8c0,2.68.67,4.71,2,6.11a7.63,7.63,0,0,0,5.76,2.09,11.14,11.14,0,0,0,3.63-.6,9.13,9.13,0,0,0,3-1.7Z"/><path class="cls-2" d="M1135.6,334.19q4.7,4.4,4.7,13V375h-5.81v-7a13.81,13.81,0,0,1-6,5.46,21,21,0,0,1-9.43,2q-7.51,0-12-3.59a12.33,12.33,0,0,1-.3-18.69q4.14-3.49,13.19-3.5h14.26V347q0-5.81-3.25-8.83t-9.47-3a24.08,24.08,0,0,0-8.2,1.41,20.65,20.65,0,0,0-6.74,3.88l-2.73-4.52a24,24,0,0,1,8.19-4.48,31.69,31.69,0,0,1,10.07-1.58Q1130.9,329.8,1135.6,334.19Zm-6.83,34.15a14.07,14.07,0,0,0,5.47-6.79v-7.34h-14.09q-11.52,0-11.52,8a7.33,7.33,0,0,0,3,6.19q3,2.26,8.37,2.27A16,16,0,0,0,1128.77,368.34Z"/><path class="cls-2" d="M1180.42,372.31a11.56,11.56,0,0,1-4.23,2.35,17.05,17.05,0,0,1-5.25.81q-6.32,0-9.73-3.42t-3.41-9.64V335.26h-8v-5.12h8v-9.82h6.06v9.82h13.66v5.12h-13.66v26.8c0,2.68.66,4.71,2,6.11a7.64,7.64,0,0,0,5.77,2.09,11.14,11.14,0,0,0,3.63-.6,9.34,9.34,0,0,0,3-1.7Z"/><path class="cls-2" d="M1228.9,354.47h-37.56a16.12,16.12,0,0,0,5.38,11.31,17.86,17.86,0,0,0,12.29,4.31,19.35,19.35,0,0,0,7.69-1.5,16.8,16.8,0,0,0,6.06-4.39l3.41,3.93a19.17,19.17,0,0,1-7.47,5.46,25.29,25.29,0,0,1-9.86,1.88,24.87,24.87,0,0,1-12.25-3,21.17,21.17,0,0,1-8.32-8.15,23.26,23.26,0,0,1-3-11.78,24,24,0,0,1,2.86-11.78,20.79,20.79,0,0,1,7.86-8.11,23.08,23.08,0,0,1,22.4,0,20.59,20.59,0,0,1,7.77,8.07,24.25,24.25,0,0,1,2.82,11.82Zm-32.56-15.33a16.26,16.26,0,0,0-5,10.8h31.84a16.29,16.29,0,0,0-5-10.8,16.48,16.48,0,0,0-21.85,0Z"/><path class="cls-2" d="M1245.29,367.49a4.49,4.49,0,0,1,1.28,3.28,9.68,9.68,0,0,1-.29,2.22,22.66,22.66,0,0,1-.9,2.73l-3.59,11.78h-4.09l2.9-12.37a4.32,4.32,0,0,1-2.22-1.58,4.91,4.91,0,0,1,.42-6.06,4.62,4.62,0,0,1,6.49,0Z"/><path class="cls-2" d="M1283.11,315.29h6.32V375h-6.32Z"/><path class="cls-2" d="M1358.83,315.29V375h-5.21l-38.41-48.49V375h-6.32V315.29h5.21l38.49,48.48V315.29Z"/><path class="cls-2" d="M1388.23,371.63a28.76,28.76,0,0,1-11.18-10.89,32,32,0,0,1,0-31.16,28.73,28.73,0,0,1,11.23-10.88,32.82,32.82,0,0,1,16-3.93,33.25,33.25,0,0,1,12.3,2.22,25.5,25.5,0,0,1,9.56,6.49l-4,4a23.82,23.82,0,0,0-17.67-7.08,26,26,0,0,0-12.89,3.24,23.61,23.61,0,0,0-9.1,8.88,26,26,0,0,0,0,25.27,23.65,23.65,0,0,0,9.1,8.87,25.88,25.88,0,0,0,12.89,3.25q10.76,0,17.67-7.17l4,4a25.85,25.85,0,0,1-9.6,6.53,34.72,34.72,0,0,1-28.35-1.66Z"/><path class="cls-2" d="M1437,374.1a4.61,4.61,0,0,1-1.32-3.33,4.45,4.45,0,0,1,1.32-3.28,4.36,4.36,0,0,1,3.21-1.33,4.47,4.47,0,0,1,3.24,1.33,4.38,4.38,0,0,1,1.37,3.28,4.54,4.54,0,0,1-1.37,3.33,4.43,4.43,0,0,1-3.24,1.37A4.32,4.32,0,0,1,1437,374.1Z"/></svg>